<svg xmlns="http://www.w3.org/2000/svg" viewBox="0 0 200 200" fill="none">
  <defs>
    <linearGradient id="rg" x1="0" y1="0" x2="1" y2="1">
      <stop offset="0%" stop-color="#6C63FF" stop-opacity="0.3"/>
      <stop offset="100%" stop-color="#4F46E5" stop-opacity="0.1"/>
    </linearGradient>
  </defs>
  <!-- Radar grid -->
  <polygon points="100,30 155,55 170,110 155,165 100,190 45,165 30,110 45,55" stroke="#6C63FF" stroke-width="0.5" fill="none" opacity="0.2"/>
  <polygon points="100,50 145,70 155,110 145,150 100,170 55,150 45,110 55,70" stroke="#6C63FF" stroke-width="0.5" fill="none" opacity="0.15"/>
  <polygon points="100,70 135,85 140,110 135,135 100,150 65,135 60,110 65,85" stroke="#6C63FF" stroke-width="0.5" fill="none" opacity="0.1"/>
  <!-- Data polygon -->
  <polygon points="100,35 150,62 165,110 140,160 100,175 55,145 40,110 60,58" fill="url(#rg)" stroke="#6C63FF" stroke-width="2"/>
  <!-- Data points -->
  <circle cx="100" cy="35" r="3" fill="#6C63FF"/>
  <circle cx="150" cy="62" r="3" fill="#6C63FF"/>
  <circle cx="165" cy="110" r="3" fill="#6C63FF"/>
  <circle cx="140" cy="160" r="3" fill="#22C55E"/>
  <circle cx="100" cy="175" r="3" fill="#22C55E"/>
  <circle cx="55" cy="145" r="3" fill="#EAB308"/>
  <circle cx="40" cy="110" r="3" fill="#F97316"/>
  <circle cx="60" cy="58" r="3" fill="#6C63FF"/>
</svg>
